M48
; DRILL file {KiCad 9.0.3} date 2025-07-24T16:17:34-0400
; FORMAT={-:-/ absolute / metric / decimal}
; #@! TF.CreationDate,2025-07-24T16:17:34-04:00
; #@! TF.GenerationSoftware,Kicad,Pcbnew,9.0.3
; #@! TF.FileFunction,Plated,1,4,PTH
FMAT,2
METRIC
; #@! TA.AperFunction,Plated,PTH,ComponentDrill
T1C0.254
; #@! TA.AperFunction,Plated,PTH,ViaDrill
T2C0.381
; #@! TA.AperFunction,Plated,PTH,ViaDrill
T3C0.400
; #@! TA.AperFunction,Plated,PTH,ComponentDrill
T4C0.800
; #@! TA.AperFunction,Plated,PTH,ComponentDrill
T5C0.890
; #@! TA.AperFunction,Plated,PTH,ViaDrill
T6C1.016
; #@! TA.AperFunction,Plated,PTH,ComponentDrill
T7C1.200
; #@! TA.AperFunction,Plated,PTH,ComponentDrill
T8C1.850
; #@! TA.AperFunction,Plated,PTH,ComponentDrill
T9C2.010
; #@! TA.AperFunction,Plated,PTH,ComponentDrill
T10C2.080
%
G90
G05
T1
X-9.772Y89.439
X-9.772Y87.915
X-9.772Y86.391
X-9.327Y88.677
X-9.327Y87.153
X-8.937Y74.455
X-8.937Y73.566
X-8.937Y72.677
X-8.883Y89.439
X-8.883Y87.915
X-8.883Y86.391
X-8.438Y88.677
X-8.438Y87.153
X-8.175Y74.011
X-8.175Y73.122
X-7.994Y89.439
X-7.994Y87.915
X-7.994Y86.391
X-7.413Y74.455
X-7.413Y73.566
X-7.413Y72.677
X-6.651Y74.011
X-6.651Y73.122
X-5.889Y74.455
X-5.889Y73.566
X-5.889Y72.677
T2
X-4.75Y67.75
X-3.9Y68.7
T3
X-42.25Y87.35
X-38.989Y73.02
X-35.267Y71.928
X-31.355Y58.158
X-28.785Y38.807
X-27.848Y54.706
X-27.834Y57.842
X-27.8Y41.8
X-23.455Y56.658
X-22.5Y22.0
X-22.47Y31.561
X-21.826Y28.482
X-20.95Y18.995
X-20.933Y17.086
X-20.5Y23.5
X-19.974Y32.241
X-19.955Y64.508
X-19.925Y28.452
X-19.605Y61.458
X-19.044Y82.733
X-18.645Y27.717
X-18.405Y59.358
X-17.905Y57.958
X-17.791Y24.108
X-17.673Y25.983
X-17.608Y41.0
X-17.472Y42.861
X-17.143Y82.663
X-16.157Y28.444
X-15.343Y79.308
X-15.173Y24.2
X-15.15Y66.25
X-15.05Y55.2
X-14.876Y53.284
X-14.826Y51.734
X-14.65Y57.55
X-14.549Y-26.285
X-14.008Y-18.245
X-14.0Y65.8
X-13.85Y37.3
X-13.806Y91.727
X-13.794Y32.526
X-13.446Y79.37
X-12.989Y67.972
X-12.885Y-47.048
X-12.662Y-26.101
X-12.453Y-16.363
X-12.438Y84.155
X-12.193Y9.37
X-11.992Y-56.414
X-11.648Y53.25
X-11.597Y-17.206
X-11.238Y79.352
X-11.228Y-14.609
X-11.064Y67.85
X-10.978Y-47.048
X-10.85Y65.1
X-10.445Y-36.513
X-10.356Y24.2
X-10.293Y9.37
X-10.23Y-72.901
X-9.791Y19.822
X-9.749Y21.672
X-9.4Y-55.404
X-9.319Y79.464
X-9.275Y-23.061
X-9.238Y91.646
X-9.097Y84.188
X-8.954Y-27.579
X-7.636Y-18.656
X-7.092Y-30.08
X-6.995Y-14.829
X-6.993Y-2.38
X-6.912Y-0.477
X-6.857Y-26.621
X-6.648Y67.733
X-6.639Y10.282
X-6.305Y57.008
X-5.801Y65.242
X-5.361Y-30.088
X-5.138Y-16.138
X-4.938Y-48.252
X-4.7Y81.75
X-4.455Y62.858
X-4.116Y86.584
X-4.09Y91.241
X-4.039Y-38.974
X-3.7Y74.0
X-3.451Y-29.956
X-3.444Y88.703
X-3.161Y53.79
X6.2Y56.05
X6.25Y52.55
X7.6Y53.7
X7.65Y56.0
T4
X-40.75Y67.6
X-38.21Y67.6
X-35.67Y67.6
X-27.55Y68.09
X-27.55Y65.55
X-27.55Y63.01
X-26.569Y45.941
X-19.069Y45.941
X-11.407Y-67.202
X-11.407Y-69.742
X-3.787Y-67.202
X-3.787Y-69.742
T5
X0.0Y87.04
X0.0Y84.5
X0.0Y70.04
X0.0Y67.5
X0.0Y-33.46
X0.0Y-36.0
X0.0Y-50.46
X0.0Y-53.0
X0.0Y-67.46
X0.0Y-70.0
T6
X-43.232Y1.794
X-43.232Y-38.592
X-37.136Y-35.04
X-33.072Y-27.828
X-31.294Y-1.762
X-30.532Y-15.382
X-28.147Y-35.04
T7
X-43.244Y-14.27
X-43.244Y-17.77
X-43.244Y-21.27
T8
X-11.27Y50.438
X-11.27Y45.608
X-11.27Y40.778
X-11.27Y35.948
X-7.46Y50.438
X-7.46Y45.608
X-7.46Y40.778
X-7.46Y35.948
X-3.65Y50.438
X-3.65Y45.608
X-3.65Y40.778
X-3.65Y35.948
X-1.725Y-3.8
X-1.725Y-8.5
X-1.725Y-13.2
X10.7Y45.733
X10.7Y40.653
X10.975Y-5.96
X10.975Y-11.04
T9
X5.08Y89.58
X5.08Y79.42
X5.08Y72.58
X5.08Y62.42
X5.08Y-30.92
X5.08Y-41.08
X5.08Y-47.92
X5.08Y-58.08
X5.08Y-64.92
X5.08Y-75.08
T10
X-4.41Y26.5
X-4.41Y15.0
X-4.41Y3.5
X-4.41Y-21.0
X0.67Y26.5
X0.67Y15.0
X0.67Y3.5
X0.67Y-21.0
X5.75Y26.5
X5.75Y15.0
X5.75Y3.5
X5.75Y-21.0
M30
