%TF.GenerationSoftware,KiCad,Pcbnew,9.0.3*%
%TF.CreationDate,2025-07-24T16:17:36-04:00*%
%TF.ProjectId,intensity_pi,696e7465-6e73-4697-9479-5f70692e6b69,rev?*%
%TF.SameCoordinates,Original*%
%TF.FileFunction,Legend,Bot*%
%TF.FilePolarity,Positive*%
%FSLAX46Y46*%
G04 Gerber Fmt 4.6, Leading zero omitted, Abs format (unit mm)*
G04 Created by KiCad (PCBNEW 9.0.3) date 2025-07-24 16:17:36*
%MOMM*%
%LPD*%
G01*
G04 APERTURE LIST*
%ADD10C,0.100000*%
G04 APERTURE END LIST*
D10*
X5154761Y-16542580D02*
X4821428Y-17018771D01*
X4583333Y-16542580D02*
X4583333Y-17542580D01*
X4583333Y-17542580D02*
X4964285Y-17542580D01*
X4964285Y-17542580D02*
X5059523Y-17494961D01*
X5059523Y-17494961D02*
X5107142Y-17447342D01*
X5107142Y-17447342D02*
X5154761Y-17352104D01*
X5154761Y-17352104D02*
X5154761Y-17209247D01*
X5154761Y-17209247D02*
X5107142Y-17114009D01*
X5107142Y-17114009D02*
X5059523Y-17066390D01*
X5059523Y-17066390D02*
X4964285Y-17018771D01*
X4964285Y-17018771D02*
X4583333Y-17018771D01*
X5440476Y-17542580D02*
X5773809Y-16542580D01*
X5773809Y-16542580D02*
X6107142Y-17542580D01*
X6583333Y-17114009D02*
X6488095Y-17161628D01*
X6488095Y-17161628D02*
X6440476Y-17209247D01*
X6440476Y-17209247D02*
X6392857Y-17304485D01*
X6392857Y-17304485D02*
X6392857Y-17352104D01*
X6392857Y-17352104D02*
X6440476Y-17447342D01*
X6440476Y-17447342D02*
X6488095Y-17494961D01*
X6488095Y-17494961D02*
X6583333Y-17542580D01*
X6583333Y-17542580D02*
X6773809Y-17542580D01*
X6773809Y-17542580D02*
X6869047Y-17494961D01*
X6869047Y-17494961D02*
X6916666Y-17447342D01*
X6916666Y-17447342D02*
X6964285Y-17352104D01*
X6964285Y-17352104D02*
X6964285Y-17304485D01*
X6964285Y-17304485D02*
X6916666Y-17209247D01*
X6916666Y-17209247D02*
X6869047Y-17161628D01*
X6869047Y-17161628D02*
X6773809Y-17114009D01*
X6773809Y-17114009D02*
X6583333Y-17114009D01*
X6583333Y-17114009D02*
X6488095Y-17066390D01*
X6488095Y-17066390D02*
X6440476Y-17018771D01*
X6440476Y-17018771D02*
X6392857Y-16923533D01*
X6392857Y-16923533D02*
X6392857Y-16733057D01*
X6392857Y-16733057D02*
X6440476Y-16637819D01*
X6440476Y-16637819D02*
X6488095Y-16590200D01*
X6488095Y-16590200D02*
X6583333Y-16542580D01*
X6583333Y-16542580D02*
X6773809Y-16542580D01*
X6773809Y-16542580D02*
X6869047Y-16590200D01*
X6869047Y-16590200D02*
X6916666Y-16637819D01*
X6916666Y-16637819D02*
X6964285Y-16733057D01*
X6964285Y-16733057D02*
X6964285Y-16923533D01*
X6964285Y-16923533D02*
X6916666Y-17018771D01*
X6916666Y-17018771D02*
X6869047Y-17066390D01*
X6869047Y-17066390D02*
X6773809Y-17114009D01*
X5154761Y7957419D02*
X4821428Y7481228D01*
X4583333Y7957419D02*
X4583333Y6957419D01*
X4583333Y6957419D02*
X4964285Y6957419D01*
X4964285Y6957419D02*
X5059523Y7005038D01*
X5059523Y7005038D02*
X5107142Y7052657D01*
X5107142Y7052657D02*
X5154761Y7147895D01*
X5154761Y7147895D02*
X5154761Y7290752D01*
X5154761Y7290752D02*
X5107142Y7385990D01*
X5107142Y7385990D02*
X5059523Y7433609D01*
X5059523Y7433609D02*
X4964285Y7481228D01*
X4964285Y7481228D02*
X4583333Y7481228D01*
X5440476Y6957419D02*
X5773809Y7957419D01*
X5773809Y7957419D02*
X6107142Y6957419D01*
X6869047Y7290752D02*
X6869047Y7957419D01*
X6630952Y6909800D02*
X6392857Y7624085D01*
X6392857Y7624085D02*
X7011904Y7624085D01*
X5154761Y30957419D02*
X4821428Y30481228D01*
X4583333Y30957419D02*
X4583333Y29957419D01*
X4583333Y29957419D02*
X4964285Y29957419D01*
X4964285Y29957419D02*
X5059523Y30005038D01*
X5059523Y30005038D02*
X5107142Y30052657D01*
X5107142Y30052657D02*
X5154761Y30147895D01*
X5154761Y30147895D02*
X5154761Y30290752D01*
X5154761Y30290752D02*
X5107142Y30385990D01*
X5107142Y30385990D02*
X5059523Y30433609D01*
X5059523Y30433609D02*
X4964285Y30481228D01*
X4964285Y30481228D02*
X4583333Y30481228D01*
X5440476Y29957419D02*
X5773809Y30957419D01*
X5773809Y30957419D02*
X6107142Y29957419D01*
X6345238Y29957419D02*
X6964285Y29957419D01*
X6964285Y29957419D02*
X6630952Y30338371D01*
X6630952Y30338371D02*
X6773809Y30338371D01*
X6773809Y30338371D02*
X6869047Y30385990D01*
X6869047Y30385990D02*
X6916666Y30433609D01*
X6916666Y30433609D02*
X6964285Y30528847D01*
X6964285Y30528847D02*
X6964285Y30766942D01*
X6964285Y30766942D02*
X6916666Y30862180D01*
X6916666Y30862180D02*
X6869047Y30909800D01*
X6869047Y30909800D02*
X6773809Y30957419D01*
X6773809Y30957419D02*
X6488095Y30957419D01*
X6488095Y30957419D02*
X6392857Y30909800D01*
X6392857Y30909800D02*
X6345238Y30862180D01*
%TO.C,RV8*%
X-5850000Y-32110000D02*
X-5850000Y-9890000D01*
X12740000Y-9890000D02*
X-5850000Y-9890000D01*
X12740000Y-32110000D02*
X-5850000Y-32110000D01*
X12740000Y-32110000D02*
X12740000Y-9890000D01*
X-5850000Y-27100000D02*
X12740000Y-27100000D01*
X12740000Y-14900000D01*
X-5850000Y-14900000D01*
X-5850000Y-27100000D01*
X12740000Y-26155000D02*
X33370000Y-26155000D01*
X33370000Y-15845000D01*
X12740000Y-15845000D01*
X12740000Y-26155000D01*
%TO.C,RV4*%
X-5850000Y-7610000D02*
X-5850000Y14610000D01*
X12740000Y14610000D02*
X-5850000Y14610000D01*
X12740000Y-7610000D02*
X-5850000Y-7610000D01*
X12740000Y-7610000D02*
X12740000Y14610000D01*
X-5850000Y-2600000D02*
X12740000Y-2600000D01*
X12740000Y9600000D01*
X-5850000Y9600000D01*
X-5850000Y-2600000D01*
X12740000Y-1655000D02*
X33370000Y-1655000D01*
X33370000Y8655000D01*
X12740000Y8655000D01*
X12740000Y-1655000D01*
%TO.C,RV3*%
X-5850000Y15390000D02*
X-5850000Y37610000D01*
X12740000Y37610000D02*
X-5850000Y37610000D01*
X12740000Y15390000D02*
X-5850000Y15390000D01*
X12740000Y15390000D02*
X12740000Y37610000D01*
X-5850000Y20400000D02*
X12740000Y20400000D01*
X12740000Y32600000D01*
X-5850000Y32600000D01*
X-5850000Y20400000D01*
X12740000Y21345000D02*
X33370000Y21345000D01*
X33370000Y31655000D01*
X12740000Y31655000D01*
X12740000Y21345000D01*
%TD*%
M02*
